<svg width="27" height="32" viewBox="0 0 27 32" fill="none" xmlns="http://www.w3.org/2000/svg">
<path d="M19.4175 3.90629V0L16.7697 2.97904C15.7266 2.72256 14.6434 2.56473 13.5 2.56473C6.03789 2.56473 0 8.48335 0 15.8027C0 21.0308 3.10921 25.529 7.60253 27.6794V32L10.5312 28.6856C11.4941 28.9026 12.477 29.021 13.5 29.021C20.9621 29.021 27 23.1023 27 15.8027C27 10.5746 23.9108 6.05672 19.4175 3.90629ZM3.36998 15.8027C3.36998 10.3379 7.92348 5.87916 13.5 5.87916C13.7207 5.87916 13.9413 5.89889 14.162 5.91862L8.46508 12.3305C7.90342 12.9618 7.60253 13.7509 7.60253 14.5795V23.8126C5.05498 22.037 3.36998 19.0974 3.36998 15.8027ZM13.5 25.7065C13.3997 25.7065 13.2793 25.6868 13.179 25.6868L18.555 19.6301C19.1166 18.9988 19.4175 18.2096 19.4175 17.381V13.2972H15.6062V17.2824L11.3938 22.037V14.6979L18.214 7.02343C21.4235 8.68064 23.63 11.9951 23.63 15.8027C23.63 21.2676 19.0966 25.7065 13.5 25.7065Z" fill="black"/>
</svg>
