<svg width="32" height="32" viewBox="0 0 32 32" fill="none" xmlns="http://www.w3.org/2000/svg">
<g clip-path="url(#clip0_532_3)">
<mask id="mask0_532_3" style="mask-type:luminance" maskUnits="userSpaceOnUse" x="0" y="0" width="32" height="32">
<path d="M32 0H0V32H32V0Z" fill="white"/>
</mask>
<g mask="url(#mask0_532_3)">
<path d="M32 0H0V32H32V0Z" fill="#FF0032"/>
<path d="M9.73483 2.46094L7.383 7.34523L5.03117 2.46094H2.46484V9.84382H4.26353V4.56066L6.56268 9.0235H8.20332L10.5025 4.56066V9.84382H12.3049V2.46094H9.73483Z" fill="white"/>
<path d="M21.3208 2.46094V3.93225H24.5343L24.5268 9.84382H26.3255L26.333 3.93225H29.5503V2.46094H21.3208Z" fill="white"/>
<path d="M27.7478 27.0761C27.7026 27.3696 27.5859 27.6142 27.394 27.7948C27.2134 27.9679 26.9726 28.0883 26.6716 28.1598C26.3743 28.2275 25.9415 28.2689 25.4787 28.2689C25.0159 28.2689 24.5794 28.2087 24.2219 28.0845C23.8757 27.9679 23.601 27.7609 23.4091 27.4712C23.2134 27.1814 23.1156 26.76 23.1156 26.2256V25.4693C23.1156 24.9312 23.2134 24.5135 23.4091 24.2238C23.601 23.934 23.8757 23.7308 24.2219 23.6104C24.5794 23.49 25.0008 23.426 25.4787 23.426C25.9566 23.426 26.3743 23.4674 26.6716 23.5351C26.9726 23.6029 27.2134 23.727 27.394 23.9001C27.5822 24.0845 27.7026 24.3254 27.7478 24.6189H29.5502C29.5013 24.0093 29.2943 23.49 28.9331 23.0761C28.6019 22.696 28.1466 22.4175 27.5784 22.2482C27.0253 22.0826 26.3028 21.9961 25.4825 21.9961C24.6208 21.9961 23.8719 22.1203 23.2548 22.3649C22.6302 22.6132 22.1485 23.0271 21.8136 23.5953C21.4938 24.141 21.3282 24.8672 21.3169 25.759V25.8418L21.4147 25.8456L21.3169 25.8493V25.9321C21.3282 26.8239 21.4938 27.5502 21.8136 28.0958C22.1447 28.664 22.6302 29.0779 23.2548 29.3263C23.8682 29.5709 24.617 29.6951 25.4825 29.6951C26.3442 29.6951 27.029 29.6085 27.5784 29.4429C28.1466 29.2736 28.6019 28.9952 28.9331 28.6151C29.2943 28.2012 29.5013 27.6819 29.5502 27.0723L27.7478 27.0761Z" fill="white"/>
</g>
</g>
<defs>
<clipPath id="clip0_532_3">
<rect width="32" height="32" fill="white"/>
</clipPath>
</defs>
</svg>
