<svg width="32" height="21" viewBox="0 0 32 21" fill="none" xmlns="http://www.w3.org/2000/svg">
<g clip-path="url(#clip0_533_16)">
<path d="M9.84026 16.8016L9.78222 16.8584C8.87068 17.7968 7.81584 18.2926 6.72926 18.2926C4.45995 18.2926 2.81374 16.5725 2.81374 14.2C2.81374 11.8312 4.45995 10.1083 6.72926 10.1083C7.81584 10.1083 8.87068 10.6069 9.78222 11.5489L9.84026 11.6048L11.2996 9.82152L11.2606 9.77387C10.0471 8.32506 8.59042 7.62036 6.8 7.62036C5.00505 7.62036 3.36157 8.23159 2.17885 9.33217C0.890908 10.5253 0.213379 12.2078 0.213379 14.2C0.213379 16.1922 0.890908 17.8784 2.17885 19.0715C3.36157 20.1785 5.00505 20.7852 6.8 20.7852C8.59042 20.7852 10.0471 20.0795 11.2606 18.6298L11.2996 18.5858L9.84026 16.8016Z" fill="#004685"/>
<path d="M12.7737 20.543H15.3514V7.8272H12.7737V20.543Z" fill="#004685"/>
<path d="M25.4503 17.7782C24.7619 18.2016 24.1224 18.4151 23.5474 18.4151C22.7139 18.4151 22.3365 17.9697 22.3365 16.98V10.2327H24.9641V7.83908H22.3365V3.88213L19.8106 5.24938V7.83908H17.6301V10.2327H19.8106V17.4098C19.8106 19.3645 20.957 20.7024 22.6694 20.7372C23.8313 20.7601 24.5315 20.4101 24.956 20.1535L24.9832 20.1361L25.6026 17.6838L25.4503 17.7782Z" fill="#004685"/>
<path d="M27.584 20.543H30.1653V7.8272H27.584V20.543Z" fill="#004685"/>
<path d="M31.6687 5.59633C29.3132 2.22587 25.4023 0.215317 21.4233 0.215317C17.4452 0.215317 13.5333 2.22587 11.1823 5.59633L11.0608 5.76953H14.0267L14.0593 5.73379C16.0774 3.62794 18.7131 2.51545 21.4233 2.51545C24.1334 2.51545 26.7673 3.62794 28.7899 5.73379L28.8225 5.76953H31.7866L31.6687 5.59633Z" fill="#EE1C25"/>
</g>
<defs>
<clipPath id="clip0_533_16">
<rect width="32" height="21" fill="white"/>
</clipPath>
</defs>
</svg>
