<svg width="31" height="32" viewBox="0 0 31 32" fill="none" xmlns="http://www.w3.org/2000/svg">
<g clip-path="url(#clip0_533_13)">
<path d="M8.33889 32.0014C8.33889 32.0014 10.5696 26.8013 10.6283 26.6682C10.6848 26.533 10.637 26.2167 10.2565 26.1949C9.80428 26.1687 8.34542 26.0771 6.8235 25.6932C5.95167 25.4729 4.99286 25.1523 4.08186 24.6746C2.82738 24.0158 1.4533 23.0517 0.561891 21.261C-0.0903608 19.9522 -0.407789 17.6161 0.933672 15.1469C1.78378 13.583 4.15579 10.3286 9.36948 8.03392C10.3935 7.58239 10.8153 7.43843 11.661 7.15922C12.1111 7.01092 12.5372 7.21594 12.7024 7.47988C13.87 9.32301 16.3681 13.2885 16.3681 13.2885C16.2377 13.3169 15.1745 13.5481 14.0266 14.0062C12.1089 14.7696 10.1761 16.0914 9.10204 17.5768C7.14309 20.2903 8.15628 22.9121 10.7457 24.042C11.661 24.4412 12.2285 24.5459 12.8068 24.6528C14.3331 24.9342 16.142 24.7269 16.5399 24.668C16.9703 24.6048 17.1791 24.8338 17.2682 25.0345C17.3378 25.1915 17.3052 25.3748 17.2987 25.4424C17.2313 26.1535 17.0551 27.7828 16.903 29.2181C16.8617 29.6151 16.6725 29.9117 16.1203 30.0448C15.5854 30.1735 14.6983 30.4025 13.8069 30.625C11.3827 31.2314 8.34108 31.9992 8.34108 31.9992" fill="#032183"/>
<path d="M22.6611 0C22.6611 0 20.4304 5.20007 20.3717 5.33311C20.3151 5.46836 20.363 5.78464 20.7435 5.80646C21.1957 5.83264 22.6546 5.92423 24.1765 6.30816C25.0483 6.52844 26.0071 6.8491 26.9181 7.32679C28.1726 7.98551 29.5467 8.94963 30.4381 10.7404C31.0903 12.0492 31.4077 14.3853 30.0663 16.8544C29.2162 18.4184 26.8442 21.6728 21.6305 23.9674C20.6065 24.419 20.1847 24.5629 19.3389 24.8421C18.8889 24.9905 18.4627 24.7854 18.2975 24.5215C17.13 22.6783 14.6319 18.7128 14.6319 18.7128C14.7623 18.6845 15.8255 18.4533 16.9734 17.9952C18.891 17.2318 20.8239 15.91 21.8979 14.4245C23.8569 11.7111 22.8437 9.08921 20.2543 7.95936C19.3389 7.56017 18.7715 7.45549 18.1931 7.3486C16.6669 7.06722 14.858 7.27445 14.4601 7.33333C14.0296 7.39656 13.8209 7.16756 13.7317 6.96688C13.6622 6.80982 13.6948 6.62661 13.7013 6.55897C13.7687 5.84791 13.9448 4.21852 14.097 2.78326C14.1383 2.38627 14.3275 2.08963 14.8797 1.95657C15.4146 1.82788 16.3016 1.59885 17.193 1.37636C19.6172 0.769979 22.6589 0.00218124 22.6589 0.00218124" fill="#032183"/>
</g>
<defs>
<clipPath id="clip0_533_13">
<rect width="31" height="32" fill="white"/>
</clipPath>
</defs>
</svg>
