<svg width="33" height="33" viewBox="0 0 33 33" fill="none" xmlns="http://www.w3.org/2000/svg">
<mask id="mask0_529_8" style="mask-type:luminance" maskUnits="userSpaceOnUse" x="0" y="0" width="33" height="33">
<path d="M32.5 0.5H0.5V32.5H32.5V0.5Z" fill="white"/>
</mask>
<g mask="url(#mask0_529_8)">
<path d="M0.5 15.86C0.5 8.61923 0.5 4.99885 2.74942 2.74942C4.99885 0.5 8.61923 0.5 15.86 0.5H17.14C24.3808 0.5 28.0012 0.5 30.2506 2.74942C32.5 4.99885 32.5 8.61923 32.5 15.86V17.14C32.5 24.3808 32.5 28.0012 30.2506 30.2506C28.0012 32.5 24.3808 32.5 17.14 32.5H15.86C8.61923 32.5 4.99885 32.5 2.74942 30.2506C0.5 28.0012 0.5 24.3808 0.5 17.14V15.86Z" fill="#0077FF"/>
<path d="M17.5266 23.5544C10.2332 23.5544 6.07325 18.5544 5.8999 10.2344H9.55325C9.67325 16.341 12.3665 18.9277 14.4998 19.461V10.2344H17.94V15.501C20.0466 15.2743 22.2597 12.8744 23.0064 10.2344H26.4465C25.8731 13.4877 23.4731 15.8877 21.7665 16.8743C23.4731 17.6743 26.2066 19.7677 27.2466 23.5544H23.4598C22.6465 21.021 20.62 19.061 17.94 18.7943V23.5544H17.5266Z" fill="white"/>
</g>
</svg>
